<?xml version="1.0" encoding="UTF-8"?>
<svg version="1.1" xmlns="http://www.w3.org/2000/svg" width="568" height="439">
<path d="M0 0 C0 0.66 0 1.32 0 2 C0.598125 2.25910156 1.19625 2.51820313 1.8125 2.78515625 C7.89029415 6.16050264 11.2094323 13.45411683 13.30078125 19.81640625 C15.70360813 30.75665154 14.74948871 41.2337452 9 51 C6.5 53.9375 6.5 53.9375 4 56 C3.29875 56.825 2.5975 57.65 1.875 58.5 C-5.01694283 64.49299377 -12.99529384 66.78513716 -22 67 C-22.33 66.34 -22.66 65.68 -23 65 C-20.48917747 62.48917747 -17.97916578 59.97967393 -15.4375 57.5 C-10.01461394 51.93806558 -6.66771412 46.67972059 -5 39 C-5.12389699 32.82285 -6.9575257 27.71622002 -11 23 C-16.16217811 18.67817646 -21.7692282 16.74056588 -28.484375 17.15234375 C-37.37268958 18.60152547 -43.78232602 21.95928473 -49.3125 29.125 C-64.93190003 52.30617305 -62.2701901 83.51717727 -58.65625 109.7890625 C-58.14377469 113.55922591 -57.84381066 117.18637697 -58 121 C-62.80472428 119.39842524 -63.75978732 115.34762925 -66 111 C-66.62390625 109.89527344 -67.2478125 108.79054688 -67.890625 107.65234375 C-80.68890087 84.40687355 -84.08410756 57.69140616 -78 32 C-77.75636719 30.94941406 -77.51273437 29.89882812 -77.26171875 28.81640625 C-74.81278507 20.07684672 -69.84973765 12.84585324 -64 6 C-63.01 5.67 -62.02 5.34 -61 5 C-60.67 4.01 -60.34 3.02 -60 2 C-59.34 2 -58.68 2 -58 2 C-58 1.34 -58 0.68 -58 0 C-52.15766073 -4.48847777 -46.22383426 -6.93485998 -39 -8 C-37.9275 -8.226875 -36.855 -8.45375 -35.75 -8.6875 C-23.328839 -9.72259675 -10.37404993 -7.23860947 0 0 Z " fill="#F3F2F2" transform="translate(177,150)"/>
<path d="M0 0 C0.99 0.495 0.99 0.495 2 1 C4.5520962 11.78621789 3.6703528 25.38216915 -0.4375 35.5625 C-3.41700405 40.21052632 -3.41700405 40.21052632 -5 42 C-5.66 42 -6.32 42 -7 42 C-7.22429687 42.74121094 -7.44859375 43.48242188 -7.6796875 44.24609375 C-9.30485762 47.63587166 -11.06007326 48.9153438 -14.125 51.0625 C-15.49011719 52.03896484 -15.49011719 52.03896484 -16.8828125 53.03515625 C-23.0371078 56.91436745 -29.70188284 59.81367191 -36.2746582 62.90893555 C-44.73745582 66.90110946 -53.03995724 70.90082006 -60.98828125 75.85546875 C-63 77 -63 77 -65 77 C-65 77.66 -65 78.32 -65 79 C-68.46153846 82 -68.46153846 82 -71 82 C-71.25910156 82.56460938 -71.51820313 83.12921875 -71.78515625 83.7109375 C-73.1219246 86.22973575 -74.71653449 88.35258533 -76.4375 90.625 C-83.58220398 100.82959799 -84.11420412 112.15437187 -83.95703125 124.328125 C-84 127 -84 127 -85 129 C-85.99 128.67 -86.98 128.34 -88 128 C-88.9140625 125.015625 -88.9140625 125.015625 -89.625 121.25 C-89.86476563 120.01765625 -90.10453125 118.7853125 -90.3515625 117.515625 C-90.56554687 116.35546875 -90.77953125 115.1953125 -91 114 C-91.18820312 113.16082031 -91.37640625 112.32164062 -91.5703125 111.45703125 C-94.21301268 96.34559116 -90.0195823 81.77665271 -82 69 C-80.515 68.505 -80.515 68.505 -79 68 C-78.32878662 66.66894973 -77.66282146 65.33524902 -77 64 C-71.85596332 58.94098872 -65.78019243 55.09222896 -59.5625 51.5 C-58.65806152 50.9745459 -58.65806152 50.9745459 -57.73535156 50.43847656 C-54.93611804 48.87071633 -53.26166752 48 -50 48 C-50 47.34 -50 46.68 -50 46 C-47.39939496 44.65929682 -44.79495084 43.32726646 -42.1875 42 C-41.44951172 41.6184375 -40.71152344 41.236875 -39.95117188 40.84375 C-39.23896484 40.4828125 -38.52675781 40.121875 -37.79296875 39.75 C-37.1383667 39.41484375 -36.48376465 39.0796875 -35.80932617 38.734375 C-34 38 -34 38 -31 38 C-31 37.34 -31 36.68 -31 36 C-29.96875 35.4225 -28.9375 34.845 -27.875 34.25 C-17.65201709 28.375907 -10.50880815 21.64807762 -5.375 10.9375 C-5.0759375 10.32583984 -4.776875 9.71417969 -4.46875 9.08398438 C-3.6416514 7.39136002 -2.82060492 5.69578208 -2 4 C-1.33590526 2.6653838 -0.67064774 1.33133536 0 0 Z " fill="#F2F0F0" transform="translate(493,143)"/>
<path d="M0 0 C6.68966387 5.98772775 8.52940875 12.43819773 9.45703125 21.19921875 C9.54831881 26.77405585 9.33329462 32.31849868 9.08203125 37.88671875 C9.02363672 39.37821244 8.96633747 40.86974943 8.91015625 42.36132812 C8.77171571 45.97454425 8.61854112 49.58695153 8.45703125 53.19921875 C3.76796654 54.76224032 -0.7353131 54.93871424 -5.29296875 53.07421875 C-6.40671875 52.64109375 -6.40671875 52.64109375 -7.54296875 52.19921875 C-8.88358979 52.85110636 -10.215956 53.52005796 -11.54296875 54.19921875 C-20.61953971 56.14307851 -28.48976924 54.74204924 -36.54296875 50.19921875 C-36.54296875 49.53921875 -36.54296875 48.87921875 -36.54296875 48.19921875 C-37.12820312 47.96460938 -37.7134375 47.73 -38.31640625 47.48828125 C-43.49846878 44.48813979 -47.36417488 37.89694533 -48.98046875 32.19921875 C-49.328125 30.25 -49.328125 30.25 -49.54296875 28.19921875 C-49.66478516 27.04486328 -49.66478516 27.04486328 -49.7890625 25.8671875 C-50.24939324 17.00930818 -47.64217541 9.2875542 -41.91796875 2.51171875 C-40.12890625 0.5625 -40.12890625 0.5625 -38.54296875 -0.80078125 C-37.88296875 -0.80078125 -37.22296875 -0.80078125 -36.54296875 -0.80078125 C-36.54296875 -1.46078125 -36.54296875 -2.12078125 -36.54296875 -2.80078125 C-23.76382283 -10.41911824 -11.75600492 -9.15817446 0 0 Z M-31.54296875 13.19921875 C-34.5084495 18.67476713 -35.00400015 23.23214698 -33.26171875 29.1953125 C-31.60300804 33.81987008 -30.02174387 36.16293083 -25.73046875 38.57421875 C-20.66581635 40.86118245 -17.53182246 39.91520609 -12.41796875 38.07421875 C-8.77670682 35.69948271 -6.8604785 33.28497933 -5.54296875 29.19921875 C-4.78450884 23.93643569 -4.73986382 18.99744538 -7.23046875 14.19921875 C-10.27389995 10.25098368 -12.07930994 8.5344873 -17.09765625 7.8515625 C-23.73431748 7.50084463 -27.27662869 7.97295218 -31.54296875 13.19921875 Z " fill="#F0EEEE" transform="translate(228.54296875,219.80078125)"/>
<path d="M0 0 C0.7734375 -0.01417969 1.546875 -0.02835938 2.34375 -0.04296875 C4.5 0.1875 4.5 0.1875 7.5 2.1875 C7.7208564 5.13814148 7.78060989 7.87118231 7.6875 10.8125 C7.66719727 12.01519531 7.66719727 12.01519531 7.64648438 13.2421875 C7.61109051 15.22424378 7.55728234 17.20595551 7.5 19.1875 C8.38816406 19.02765625 9.27632813 18.8678125 10.19140625 18.703125 C17.54849998 17.55656494 23.87714425 17.38549022 30.5 21.1875 C33.33377611 23.35421023 36.07097094 25.56919594 38.5 28.1875 C38.5 28.8475 38.5 29.5075 38.5 30.1875 C39.16 30.1875 39.82 30.1875 40.5 30.1875 C43.15357416 36.28429322 43.91574684 41.10829794 43.79296875 47.71875 C43.78872391 48.59527222 43.78447906 49.47179443 43.78010559 50.37487793 C43.7634513 53.14607823 43.72582509 55.91652336 43.6875 58.6875 C43.67243599 60.57811442 43.6587506 62.46874036 43.64648438 64.359375 C43.61359139 68.96903639 43.56190255 73.57814062 43.5 78.1875 C40.73952457 79.10765848 38.86637731 79.38017245 36 79.4375 C35.2265625 79.46328125 34.453125 79.4890625 33.65625 79.515625 C31.5 79.1875 31.5 79.1875 29.87915039 78.07788086 C27.83000116 75.26914259 28.19512746 73.05402153 28.27734375 69.61328125 C28.29603516 68.30552734 28.31472656 66.99777344 28.33398438 65.65039062 C28.3671543 64.26689442 28.40166993 62.88342986 28.4375 61.5 C29.22577375 48.08184432 29.22577375 48.08184432 24.9375 35.6875 C21.19507461 33.38446899 17.76697997 33.32801919 13.5 34.1875 C10.33333333 36.02083333 10.33333333 36.02083333 8.5 39.1875 C6.96365438 47.07214169 7.38938838 55.18644726 7.4375 63.1875 C7.44252424 64.64452971 7.44708551 66.1015611 7.45117188 67.55859375 C7.46210612 71.1015977 7.47932 74.64453797 7.5 78.1875 C5.89895382 78.36792342 4.29725954 78.54260217 2.6953125 78.71484375 C1.80344238 78.81273193 0.91157227 78.91062012 -0.00732422 79.01147461 C-2.68187935 79.20034378 -4.92955398 78.9586338 -7.5 78.1875 C-8.32287588 73.87667999 -8.62639889 69.80547681 -8.62939453 65.41943359 C-8.63114685 64.77149338 -8.63289917 64.12355316 -8.63470459 63.45597839 C-8.63907519 61.3326035 -8.63620281 59.20931312 -8.6328125 57.0859375 C-8.63348675 55.60193872 -8.63445779 54.11794005 -8.63571167 52.63394165 C-8.63718201 49.53231753 -8.63505485 46.43072231 -8.63037109 43.32910156 C-8.62466422 39.35681048 -8.62796307 35.38458683 -8.63394356 31.4122982 C-8.6375586 28.35138441 -8.63640641 25.29048658 -8.63381577 22.2295723 C-8.63314963 20.76476661 -8.63396397 19.29995947 -8.63629532 17.83515549 C-8.63883841 15.78899037 -8.63495835 13.74293435 -8.62939453 11.69677734 C-8.62859894 10.53350922 -8.62780334 9.37024109 -8.62698364 8.17172241 C-8.4257932 3.44357772 -8.4257932 3.44357772 -7.5 1.1875 C-4.71398777 0.25882926 -2.88933911 0.02407783 0 0 Z " fill="#F9F8F8" transform="translate(254.5,194.8125)"/>
<path d="M0 0 C1.47916908 2.95833816 1.06058064 5.93167816 0.9921875 9.16796875 C0.97465608 10.63345644 0.95774928 12.0989517 0.94140625 13.56445312 C0.91057421 15.8707386 0.87521944 18.17664245 0.82861328 20.48266602 C0.7859377 22.71114651 0.76273127 24.93918833 0.7421875 27.16796875 C0.72356659 27.84740036 0.70494568 28.52683197 0.6857605 29.22685242 C0.65903843 34.28382918 1.71429134 37.58831434 4 42 C7.05880117 44.71893437 8.45111299 45.01925919 12.5625 44.875 C15.97162445 44.00722287 17.45723138 43.33189838 20 41 C23.57702995 32.66166027 22.11325451 22.27887546 21.88354492 13.41894531 C21.83550458 11.41497667 21.8061189 9.41058784 21.77734375 7.40625 C21.74890381 6.22353516 21.72046387 5.04082031 21.69116211 3.82226562 C21.79307861 2.89091797 21.89499512 1.95957031 22 1 C25.14611253 -1.09740836 25.91188078 -1.25328219 29.5 -1.1875 C30.2734375 -1.18105469 31.046875 -1.17460937 31.84375 -1.16796875 C34 -1 34 -1 37 0 C37.09977129 5.35272952 37.1718895 10.70490357 37.21972656 16.05834961 C37.23969343 17.87485193 37.26687687 19.69129121 37.30175781 21.50756836 C37.73450941 44.64068682 37.73450941 44.64068682 30.98535156 52.28051758 C29 54 29 54 27 54 C26.67 54.99 26.34 55.98 26 57 C20.34546457 60.86889266 13.4194352 61.48515241 6.72265625 60.75 C-1.45626469 58.99176748 -7.34801118 53.73819 -12 47 C-14.23661592 41.75197293 -14.26203466 37.04196757 -14.1953125 31.4453125 C-14.1924826 30.54376434 -14.18965271 29.64221619 -14.18673706 28.71334839 C-14.17559439 25.85042724 -14.1505008 22.98782566 -14.125 20.125 C-14.11496255 18.17708787 -14.10583804 16.22917081 -14.09765625 14.28125 C-14.07567443 9.5207113 -14.0411855 4.76040973 -14 0 C-12.2300132 -0.19532961 -10.45895721 -0.38098882 -8.6875 -0.5625 C-7.70136719 -0.66691406 -6.71523438 -0.77132812 -5.69921875 -0.87890625 C-3 -1 -3 -1 0 0 Z " fill="#EBE9E9" transform="translate(321,214)"/>
<path d="M0 0 C1.11890625 -0.020625 2.2378125 -0.04125 3.390625 -0.0625 C4.45796875 -0.06765625 5.5253125 -0.0728125 6.625 -0.078125 C7.60726562 -0.0874707 8.58953125 -0.09681641 9.6015625 -0.10644531 C10.39304688 0.01118164 11.18453125 0.12880859 12 0.25 C14.2386315 3.60794726 14.21436332 4.82453295 14.3125 8.75 C14.78023793 15.44349107 16.82267808 20.40201019 20 26.25 C20.68449219 27.55130859 20.68449219 27.55130859 21.3828125 28.87890625 C26.77958051 38.53705666 35.0778583 47.39208452 45.70703125 51.2265625 C46.46371094 51.56429687 47.22039062 51.90203125 48 52.25 C48.33 53.24 48.66 54.23 49 55.25 C48.34 55.91 47.68 56.57 47 57.25 C28.22346857 55.76828148 9.83757653 49.33596322 -3 35.25 C-9.1765171 26.86483229 -14.18791311 17.03470136 -14.0625 6.5 C-14.05347656 5.51515625 -14.04445313 4.5303125 -14.03515625 3.515625 C-14.02355469 2.76796875 -14.01195313 2.0203125 -14 1.25 C-9.87384379 -0.81307811 -4.53485586 0.02089795 0 0 Z " fill="#D2110B" transform="translate(135,213.75)"/>
<path d="M0 0 C1.093125 0.00257813 2.18625 0.00515625 3.3125 0.0078125 C4.405625 0.00523437 5.49875 0.00265625 6.625 0 C9.3125 0.1328125 9.3125 0.1328125 10.3125 1.1328125 C10.40746708 3.53629536 10.43808862 5.91092232 10.42602539 8.31469727 C10.42617142 9.06586823 10.42631744 9.81703918 10.4264679 10.5909729 C10.42576863 13.08541709 10.41797564 15.57978753 10.41015625 18.07421875 C10.40829212 19.79914814 10.40686819 21.52407807 10.40586853 23.24900818 C10.40204297 27.79793753 10.39221238 32.34683517 10.38116455 36.89575195 C10.37095124 41.53401256 10.36637108 46.17227827 10.36132812 50.81054688 C10.35059014 59.91798272 10.33351327 69.02539498 10.3125 78.1328125 C7.04336376 79.16396529 4.45208652 79.0967109 1.0625 78.6953125 C0.17046875 78.59347656 -0.7215625 78.49164063 -1.640625 78.38671875 C-2.65382813 78.26103516 -2.65382813 78.26103516 -3.6875 78.1328125 C-3.7106241 68.11053487 -3.72841543 58.08826353 -3.73931217 48.0659647 C-3.74454085 43.41270064 -3.75163823 38.75945476 -3.76293945 34.10620117 C-3.77376886 29.61936704 -3.77977695 25.13255046 -3.78237724 20.64570427 C-3.7842314 18.93000957 -3.78785182 17.21431588 -3.79323006 15.49862862 C-3.80044121 13.10396337 -3.80149091 10.70937154 -3.80102539 8.31469727 C-3.80462067 7.59828568 -3.80821594 6.88187408 -3.81192017 6.14375305 C-3.79930975 0.18775659 -3.79930975 0.18775659 0 0 Z " fill="#F1EFF0" transform="translate(371.6875,194.8671875)"/>
<path d="M0 0 C0.7734375 -0.01417969 1.546875 -0.02835938 2.34375 -0.04296875 C4.5 0.1875 4.5 0.1875 7.5 2.1875 C7.7208564 5.13814148 7.78060989 7.87118231 7.6875 10.8125 C7.66719727 12.01519531 7.66719727 12.01519531 7.64648438 13.2421875 C7.61109051 15.22424378 7.55728234 17.20595551 7.5 19.1875 C10.8 18.8575 14.1 18.5275 17.5 18.1875 C17.5 18.8475 17.5 19.5075 17.5 20.1875 C16.2625 20.31125 15.025 20.435 13.75 20.5625 C10.29327201 20.9081728 8.81109404 21.53195298 5.5 23.1875 C5.5 16.5875 5.5 9.9875 5.5 3.1875 C1.87 3.1875 -1.76 3.1875 -5.5 3.1875 C-5.5 27.6075 -5.5 52.0275 -5.5 77.1875 C-1.87 77.1875 1.76 77.1875 5.5 77.1875 C4.51 78.1775 4.51 78.1775 3.5 79.1875 C0.8984375 79.1640625 0.8984375 79.1640625 -2.125 78.8125 C-3.12789062 78.70164062 -4.13078125 78.59078125 -5.1640625 78.4765625 C-5.93492187 78.38117188 -6.70578125 78.28578125 -7.5 78.1875 C-8.32287588 73.87667999 -8.62639889 69.80547681 -8.62939453 65.41943359 C-8.63114685 64.77149338 -8.63289917 64.12355316 -8.63470459 63.45597839 C-8.63907519 61.3326035 -8.63620281 59.20931312 -8.6328125 57.0859375 C-8.63348675 55.60193872 -8.63445779 54.11794005 -8.63571167 52.63394165 C-8.63718201 49.53231753 -8.63505485 46.43072231 -8.63037109 43.32910156 C-8.62466422 39.35681048 -8.62796307 35.38458683 -8.63394356 31.4122982 C-8.6375586 28.35138441 -8.63640641 25.29048658 -8.63381577 22.2295723 C-8.63314963 20.76476661 -8.63396397 19.29995947 -8.63629532 17.83515549 C-8.63883841 15.78899037 -8.63495835 13.74293435 -8.62939453 11.69677734 C-8.62859894 10.53350922 -8.62780334 9.37024109 -8.62698364 8.17172241 C-8.4257932 3.44357772 -8.4257932 3.44357772 -7.5 1.1875 C-4.71398777 0.25882926 -2.88933911 0.02407783 0 0 Z " fill="#BFBBBC" transform="translate(254.5,194.8125)"/>
<path d="M0 0 C2.37923309 2.21128723 4.03697922 4.49761829 5.75 7.25 C11.09273198 15.34942416 18.41798248 22.61947205 27.7109375 25.98046875 C28.46632812 26.31691406 29.22171875 26.65335937 30 27 C30.495 28.485 30.495 28.485 31 30 C30.34 30.66 29.68 31.32 29 32 C15.95704606 30.97073714 0.98056043 27.2424973 -10 20 C-10.33 19.34 -10.66 18.68 -11 18 C-4.52380952 19.65079365 -4.52380952 19.65079365 -1.75 21.5 C1.82835684 23.451831 5.26364681 23.88354056 9.26171875 24.52734375 C12.61223637 25.10567846 15.75669032 25.99097032 19 27 C19 26.34 19 25.68 19 25 C18.01 24.67 17.02 24.34 16 24 C15.319375 22.7934375 15.319375 22.7934375 14.625 21.5625 C12.7163149 18.55265042 11.35034331 17.99604801 8 17 C8 16.34 8 15.68 8 15 C7.01 14.67 6.02 14.34 5 14 C5 13.34 5 12.68 5 12 C4.34 12 3.68 12 3 12 C2.49166409 10.75336669 1.99368855 9.50250613 1.5 8.25 C1.2215625 7.55390625 0.943125 6.8578125 0.65625 6.140625 C0 4 0 4 0 0 Z " fill="#801214" transform="translate(153,239)"/>
<path d="M0 0 C0.98120464 3.05263664 0.98120464 4.94736336 0 8 C0.99 8.66 1.98 9.32 3 10 C4.34061543 9.69728039 5.67405895 9.36162029 7 9 C9.25 9.4375 9.25 9.4375 11 10 C5.51902946 16.61496444 -2.20878381 19.9574022 -10.6875 20.8125 C-12.1239818 20.89515914 -13.56155138 20.96567693 -15 21 C-15.33 20.34 -15.66 19.68 -16 19 C-13.48917747 16.48917747 -10.97916578 13.97967393 -8.4375 11.5 C-4.99139542 7.96553377 -2.0159332 4.5358497 0 0 Z " fill="#E7E2E1" transform="translate(170,196)"/>
<path d="M0 0 C1.07636719 0.00322266 2.15273437 0.00644531 3.26171875 0.00976562 C4.38964844 0.01814453 5.51757812 0.02652344 6.6796875 0.03515625 C7.81535156 0.03966797 8.95101562 0.04417969 10.12109375 0.04882812 C12.93234388 0.0606401 15.7434898 0.07711118 18.5546875 0.09765625 C18.5546875 0.42765625 18.5546875 0.75765625 18.5546875 1.09765625 C6.1796875 1.59265625 6.1796875 1.59265625 -6.4453125 2.09765625 C-5.7853125 4.73765625 -5.1253125 7.37765625 -4.4453125 10.09765625 C-4.1565625 11.25265625 -3.8678125 12.40765625 -3.5703125 13.59765625 C-2.27124874 17.63918795 -0.69959008 21.48728981 1.5546875 25.09765625 C2.2146875 25.42765625 2.8746875 25.75765625 3.5546875 26.09765625 C4.23046875 27.953125 4.23046875 27.953125 4.8671875 30.28515625 C6.29602468 34.89573395 8.25133671 37.61574596 11.5546875 41.09765625 C1.51372147 36.61312894 -2.54100058 25.67094085 -6.4453125 16.09765625 C-7.53208794 12.80663007 -7.54898595 9.80622644 -7.5078125 6.34765625 C-7.49878906 5.3628125 -7.48976563 4.37796875 -7.48046875 3.36328125 C-7.46886719 2.615625 -7.45726563 1.86796875 -7.4453125 1.09765625 C-4.83580014 -0.20709993 -2.91829965 -0.01535947 0 0 Z " fill="#901514" transform="translate(128.4453125,213.90234375)"/>
<path d="M0 0 C2.25 4.5 2.25 4.5 2.22705078 8.12597656 C2.22689972 8.92650452 2.22674866 9.72703247 2.22659302 10.55181885 C2.21627045 11.40612488 2.20594788 12.26043091 2.1953125 13.140625 C2.1924826 14.02280701 2.18965271 14.90498901 2.18673706 15.81390381 C2.17555961 18.62607499 2.15045951 21.4379254 2.125 24.25 C2.11496705 26.15884956 2.10584175 28.06770412 2.09765625 29.9765625 C2.07562824 34.65116489 2.04111511 39.32552809 2 44 C-0.76047543 44.92015848 -2.63362269 45.19267245 -5.5 45.25 C-6.2734375 45.27578125 -7.046875 45.3015625 -7.84375 45.328125 C-10 45 -10 45 -11.62084961 43.88598633 C-13.66150099 41.09539827 -13.30531668 38.91842276 -13.22265625 35.49609375 C-13.20396484 34.19736328 -13.18527344 32.89863281 -13.16601562 31.56054688 C-13.13286847 30.18616449 -13.0983545 28.81181442 -13.0625 27.4375 C-12.85386366 18.7177591 -12.73230092 10.48278105 -15 2 C-14.01 2.33 -13.02 2.66 -12 3 C-10.53408906 6.93745565 -10.87444319 11.12044565 -10.90234375 15.265625 C-10.9037587 16.05902283 -10.90517365 16.85242065 -10.90663147 17.66986084 C-10.91221585 20.19661272 -10.92476546 22.72327504 -10.9375 25.25 C-10.94251702 26.96614455 -10.94707957 28.68229049 -10.95117188 30.3984375 C-10.96218016 34.59899269 -10.97943404 38.79948117 -11 43 C-7.04 43 -3.08 43 1 43 C0.67 28.81 0.34 14.62 0 0 Z " fill="#96908E" transform="translate(296,229)"/>
<path d="M0 0 C0.66 0.33 1.32 0.66 2 1 C4.41734148 11.21668853 2.75717238 21.84919169 1 32 C-0.23104155 28.31599416 0.09232748 25.08525024 0.4375 21.25 C0.53933594 20.07953125 0.64117187 18.9090625 0.74609375 17.703125 C0.87177734 16.36507812 0.87177734 16.36507812 1 15 C0.01 15.33 -0.98 15.66 -2 16 C-2 15.34 -2 14.68 -2 14 C-3.32 14.33 -4.64 14.66 -6 15 C-4.36041242 9.76727367 -2.61047965 4.84803364 0 0 Z " fill="#C7C3C3" transform="translate(493,143)"/>
<path d="M0 0 C0.33 0 0.66 0 1 0 C1.50590367 4.04095043 2.00367562 8.08286274 2.5 12.125 C2.64308594 13.26710937 2.78617188 14.40921875 2.93359375 15.5859375 C3.06894531 16.69453125 3.20429687 17.803125 3.34375 18.9453125 C3.46943359 19.96125488 3.59511719 20.97719727 3.72460938 22.02392578 C4.00315378 25.0340821 4.04726727 27.97883394 4 31 C-0.22183809 29.59272064 -0.84508756 27.16521141 -2.859375 23.3671875 C-4.17233374 20.64234846 -5.17905935 17.91060777 -6 15 C-4.35 14.34 -2.7 13.68 -1 13 C-1.33 15.31 -1.66 17.62 -2 20 C-1.67 20 -1.34 20 -1 20 C-0.67 13.4 -0.34 6.8 0 0 Z " fill="#B7B0B1" transform="translate(115,240)"/>
<path d="M0 0 C0.66 0.66 1.32 1.32 2 2 C1.525625 3.175625 1.05125 4.35125 0.5625 5.5625 C-1.99453579 13.16123843 -2.05967086 21.37279617 -1.95703125 29.33203125 C-2 32 -2 32 -3 34 C-3.99 33.67 -4.98 33.34 -6 33 C-6.94921875 30.05859375 -6.94921875 30.05859375 -7.6875 26.4375 C-7.93886719 25.23996094 -8.19023437 24.04242188 -8.44921875 22.80859375 C-8.63097656 21.88175781 -8.81273437 20.95492188 -9 20 C-8.34 20 -7.68 20 -7 20 C-6.67 20.66 -6.34 21.32 -6 22 C-5.60167969 20.37191406 -5.60167969 20.37191406 -5.1953125 18.7109375 C-4.83866918 17.26559353 -4.4818912 15.82028278 -4.125 14.375 C-3.95097656 13.66214844 -3.77695312 12.94929687 -3.59765625 12.21484375 C-2.57145662 8.07203784 -1.41209271 4.03273322 0 0 Z " fill="#ACA0A0" transform="translate(411,238)"/>
<path d="M0 0 C1.4370809 -0.05422947 2.87475462 -0.09289723 4.3125 -0.125 C5.11300781 -0.14820313 5.91351563 -0.17140625 6.73828125 -0.1953125 C9 0 9 0 12 2 C12.2208564 4.95064148 12.28060989 7.68368231 12.1875 10.625 C12.17396484 11.42679688 12.16042969 12.22859375 12.14648438 13.0546875 C12.11109051 15.03674378 12.05728234 17.01845551 12 19 C15.3 18.67 18.6 18.34 22 18 C22 18.66 22 19.32 22 20 C20.7625 20.12375 19.525 20.2475 18.25 20.375 C14.79327201 20.7206728 13.31109404 21.34445298 10 23 C10 16.07 10 9.14 10 2 C6.7 2 3.4 2 0 2 C0 1.34 0 0.68 0 0 Z " fill="#BAB6B7" transform="translate(250,195)"/>
<path d="M0 0 C-3.74187155 1.24729052 -6.11710141 0.59063881 -10 0 C-12.26847407 -0.07653199 -14.53885316 -0.10811588 -16.80859375 -0.09765625 C-18.66967773 -0.09282227 -18.66967773 -0.09282227 -20.56835938 -0.08789062 C-21.84517578 -0.07951172 -23.12199219 -0.07113281 -24.4375 -0.0625 C-25.74138672 -0.05798828 -27.04527344 -0.05347656 -28.38867188 -0.04882812 C-31.59249552 -0.03709251 -34.79622363 -0.02067363 -38 0 C-27.41075771 -7.05949486 -11.17384642 -4.35590623 0 0 Z " fill="#B3ACAB" transform="translate(167,145)"/>
<path d="M0 0 C0.33 0.66 0.66 1.32 1 2 C-4.14285714 7.57142857 -4.14285714 7.57142857 -8 8 C-8.061875 8.556875 -8.12375 9.11375 -8.1875 9.6875 C-9.33373872 12.94987173 -11.49390197 14.68667874 -14 17 C-13.34 17 -12.68 17 -12 17 C-12.33 17.99 -12.66 18.98 -13 20 C-13.99 20 -14.98 20 -16 20 C-16 20.66 -16 21.32 -16 22 C-17.32 22.33 -18.64 22.66 -20 23 C-18.65686815 19.21908383 -16.97035316 16.34348084 -14.5 13.1875 C-13.8915625 12.39730469 -13.283125 11.60710937 -12.65625 10.79296875 C-12.1096875 10.20128906 -11.563125 9.60960937 -11 9 C-10.34 9 -9.68 9 -9 9 C-8.67 8.01 -8.34 7.02 -8 6 C-7.34 6 -6.68 6 -6 6 C-6 5.34 -6 4.68 -6 4 C-4.03852126 2.61061923 -2.03833424 1.2739589 0 0 Z " fill="#CAC6C5" transform="translate(125,146)"/>
<path d="M0 0 C1.62566606 0.47690204 3.25051311 0.95659666 4.875 1.4375 C5.77992188 1.70433594 6.68484375 1.97117188 7.6171875 2.24609375 C10 3 10 3 12 4 C12 4.99 12 5.98 12 7 C12.639375 6.9175 13.27875 6.835 13.9375 6.75 C18.40292757 7.1145247 22.00911228 9.05237724 26 11 C26 11.33 26 11.66 26 12 C18.21936931 11.81790013 12.73168596 9.79100209 6 6 C5.28585938 5.69964844 4.57171875 5.39929688 3.8359375 5.08984375 C1.55942841 3.73846921 0.96806856 2.4201714 0 0 Z " fill="#BF1316" transform="translate(138,252)"/>
<path d="M0 0 C0.33 0 0.66 0 1 0 C1 12.87 1 25.74 1 39 C0.34 39 -0.32 39 -1 39 C-1 39.66 -1 40.32 -1 41 C-3.97 41.495 -3.97 41.495 -7 42 C-6.071875 41.319375 -6.071875 41.319375 -5.125 40.625 C0.605518 33.54612483 -0.58852008 22.01366667 -0.375 13.375 C-0.31699219 11.43947266 -0.31699219 11.43947266 -0.2578125 9.46484375 C-0.16433658 6.3100313 -0.07857687 3.15521273 0 0 Z " fill="#DAD5D7" transform="translate(344,217)"/>
<path d="M0 0 C0.97832079 3.48808636 0.83776221 5.6764251 0.125 9.25 C-1.65592913 19.73100859 -1.68098093 30.39326446 -2 41 C-2.33 41 -2.66 41 -3 41 C-3.07482575 36.6075369 -3.12891683 32.21542328 -3.16479492 27.82250977 C-3.17977042 26.33188402 -3.20015819 24.84130149 -3.22631836 23.35083008 C-3.36806712 15.05991747 -3.33501523 7.76419556 0 0 Z " fill="#9E9694" transform="translate(117,199)"/>
<path d="M0 0 C0.99 0.33 1.98 0.66 3 1 C4.47527012 4.9837465 4.22740276 9.28418264 4.31640625 13.484375 C4.33718735 14.29996887 4.35796844 15.11556274 4.37937927 15.95587158 C4.44461297 18.55383105 4.50363768 21.15188913 4.5625 23.75 C4.60571014 25.514333 4.64932522 27.27865613 4.69335938 29.04296875 C4.80026745 33.36187884 4.90160827 37.68088784 5 42 C4.34 42 3.68 42 3 42 C2.23369968 37.95561632 1.8983311 34.19100533 1.97265625 30.078125 C1.98490234 28.96953125 1.99714844 27.8609375 2.00976562 26.71875 C2.04468535 24.42180828 2.08369149 22.12492475 2.12695312 19.828125 C2.19459895 12.95212623 1.68764015 6.67483923 0 0 Z " fill="#B1ADAD" transform="translate(281,231)"/>
<path d="M0 0 C1.15241103 3.551693 0.95688275 6.59652098 0.66015625 10.296875 C0.56669922 11.50214844 0.47324219 12.70742187 0.37695312 13.94921875 C0.27318359 15.20347656 0.16941406 16.45773438 0.0625 17.75 C-0.03740234 19.01972656 -0.13730469 20.28945312 -0.24023438 21.59765625 C-0.48770457 24.73227868 -0.74118127 27.86629754 -1 31 C-1.33 31 -1.66 31 -2 31 C-4.43939269 20.47520088 -3.1407058 10.20729384 0 0 Z " fill="#6E6769" transform="translate(404,226)"/>
<path d="M0 0 C6.47619048 1.65079365 6.47619048 1.65079365 9.25 3.5 C12.84463615 5.46071063 16.31310787 5.82070504 20.328125 6.4609375 C23.66707838 7.13458599 26.0889737 8.2691195 29 10 C29 10.33 29 10.66 29 11 C18.97517297 10.07177527 9.64085532 7.28925083 1 2 C0.67 1.34 0.34 0.68 0 0 Z " fill="#8E0E10" transform="translate(142,257)"/>
<path d="M0 0 C0.66 0.33 1.32 0.66 2 1 C1.62875 1.969375 1.2575 2.93875 0.875 3.9375 C-0.74240867 9.59269485 0.90188713 14.70394582 3.375 19.875 C5.0500753 22.06548309 6.7007884 23.49361999 9 25 C7.02 25 5.04 25 3 25 C-2.07386183 17.98719811 -3.12770195 11.57053479 -2 3 C-1.34 2.01 -0.68 1.02 0 0 Z " fill="#959090" transform="translate(195,234)"/>
<path d="M0 0 C2.61269175 2.61269175 2.28417175 3.92443891 2.4375 7.5625 C2.79994434 13.12669183 3.92861124 17.84106951 6 23 C3.525 22.01 3.525 22.01 1 21 C0.06145994 13.96094956 -0.10808032 7.09727428 0 0 Z " fill="#7D0F13" transform="translate(147,215)"/>
<path d="M0 0 C0.33 0 0.66 0 1 0 C1.0501123 0.57443848 1.10022461 1.14887695 1.15185547 1.74072266 C1.38544563 4.36953886 1.63012958 6.99721151 1.875 9.625 C1.95363281 10.52863281 2.03226563 11.43226563 2.11328125 12.36328125 C2.57019973 17.17849903 3.20520265 21.46021846 5 26 C0.86745358 22.69396287 -0.31364399 19.09119774 -1 14 C-1.28248915 9.17595451 -1.33912398 4.67086443 0 0 Z " fill="#91898C" transform="translate(180,234)"/>
<path d="M0 0 C0.66 0.33 1.32 0.66 2 1 C1.5875 1.515625 1.175 2.03125 0.75 2.5625 C-1.14112407 5.0910813 -1.14112407 5.0910813 -2.875 8.4375 C-4.80473915 11.90803863 -7.08044428 14.32374059 -10 17 C-10.33 16.01 -10.66 15.02 -11 14 C-9.890625 11.84375 -9.890625 11.84375 -8.25 9.5 C-7.45335937 8.33984375 -7.45335937 8.33984375 -6.640625 7.15625 C-5.1889061 5.24827658 -3.81921307 3.55932549 -2 2 C-1.34 2 -0.68 2 0 2 C0 1.34 0 0.68 0 0 Z " fill="#BAB7B6" transform="translate(192,217)"/>
<path d="M0 0 C0.33 0 0.66 0 1 0 C1.33 11.88 1.66 23.76 2 36 C1.67 36 1.34 36 1 36 C-1.10948236 28.00316494 -1.08298471 20.59124576 -0.625 12.375 C-0.56828125 11.18003906 -0.5115625 9.98507813 -0.453125 8.75390625 C-0.31302761 5.83521063 -0.16176703 2.91756109 0 0 Z " fill="#EFE7E8" transform="translate(98,194)"/>
<path d="M0 0 C2.52060868 2.24212784 3.69675048 4.25448832 4.9375 7.375 C6.50578604 11.08681214 8.27612256 13.98427854 11 17 C10.01 17 9.02 17 8 17 C8 16.34 8 15.68 8 15 C7.01 14.67 6.02 14.34 5 14 C5 13.34 5 12.68 5 12 C4.34 12 3.68 12 3 12 C2.49166409 10.75336669 1.99368855 9.50250613 1.5 8.25 C1.2215625 7.55390625 0.943125 6.8578125 0.65625 6.140625 C0 4 0 4 0 0 Z " fill="#961415" transform="translate(153,239)"/>
<path d="M0 0 C4.95 0 9.9 0 15 0 C15.33 5.94 15.66 11.88 16 18 C15.67 18 15.34 18 15 18 C14.86722656 17.02417969 14.73445312 16.04835937 14.59765625 15.04296875 C14.42105469 13.77066406 14.24445313 12.49835938 14.0625 11.1875 C13.88847656 9.92292969 13.71445313 8.65835938 13.53515625 7.35546875 C13.09607545 4.01678297 13.09607545 4.01678297 12 1 C8.04 1 4.08 1 0 1 C0 0.67 0 0.34 0 0 Z " fill="#B61D1E" transform="translate(132,215)"/>
<path d="M0 0 C0 0.66 0 1.32 0 2 C1.65 2.33 3.3 2.66 5 3 C5 3.66 5 4.32 5 5 C3.86111328 4.98259766 3.86111328 4.98259766 2.69921875 4.96484375 C1.70535156 4.95582031 0.71148437 4.94679687 -0.3125 4.9375 C-1.29863281 4.92589844 -2.28476562 4.91429687 -3.30078125 4.90234375 C-6.09963849 4.87670138 -6.09963849 4.87670138 -9 6 C-9 4.35 -9 2.7 -9 1 C-8.67 1.66 -8.34 2.32 -8 3 C-7.608125 2.505 -7.21625 2.01 -6.8125 1.5 C-4.44908285 -0.45593143 -2.98564997 -0.24207973 0 0 Z " fill="#ABA8A7" transform="translate(274,224)"/>
<path d="M0 0 C4.67316951 2.07696422 6.01226588 4.55162492 8.01953125 8.9921875 C9.31690528 11.64896142 11.06028947 13.78318796 13 16 C7.0629956 13.43688797 2.98476196 8.3976813 0.5625 2.5 C0.376875 1.675 0.19125 0.85 0 0 Z " fill="#7F1112" transform="translate(127,239)"/>
<path d="M0 0 C0.88529564 2.44276019 1.1675728 3.58425986 0.1796875 6.03515625 C-2.39114219 10.02994849 -4.42669024 13.1459555 -9 15 C-9.66 14.67 -10.32 14.34 -11 14 C-10.2575 13.278125 -9.515 12.55625 -8.75 11.8125 C-5.18886524 8.17043036 -2.08113759 4.68255958 0 0 Z " fill="#9B9899" transform="translate(170,196)"/>
<path d="M0 0 C1.65 0 3.3 0 5 0 C5.061875 0.94875 5.12375 1.8975 5.1875 2.875 C5.455625 3.90625 5.72375 4.9375 6 6 C8.46255685 7.45291273 8.46255685 7.45291273 11 8 C11 8.66 11 9.32 11 10 C11.66 10.33 12.32 10.66 13 11 C10.83125748 10.49396008 9.00032373 10.00016187 7 9 C7 8.34 7 7.68 7 7 C6.401875 6.773125 5.80375 6.54625 5.1875 6.3125 C2.43648112 4.66188867 1.47515363 2.8027919 0 0 Z " fill="#A89FA0" transform="translate(185,261)"/>
<path d="M0 0 C0.33 0.99 0.66 1.98 1 3 C4.3 3 7.6 3 11 3 C7.83759418 5.10827055 6.49342531 5.33817465 2.8125 5.625 C1.91144531 5.69976562 1.01039063 5.77453125 0.08203125 5.8515625 C-0.60503906 5.90054688 -1.29210937 5.94953125 -2 6 C-2.33 5.34 -2.66 4.68 -3 4 C-2.01 2.68 -1.02 1.36 0 0 Z " fill="#83787A" transform="translate(157,211)"/>
<path d="M0 0 C2.75706651 3.15093316 4.00679856 6.39604529 5.3515625 10.29296875 C5.86849816 12.00513961 5.86849816 12.00513961 7 13 C7.04063832 14.66617115 7.042721 16.33388095 7 18 C4.11250978 15.54273755 3.06786714 13.10734898 1.8125 9.5625 C1.29623047 8.14130859 1.29623047 8.14130859 0.76953125 6.69140625 C0 4 0 4 0 0 Z " fill="#968F92" transform="translate(102,237)"/>
<path d="M0 0 C4.875 3.625 4.875 3.625 6 7 C6.66 7.33 7.32 7.66 8 8 C8 8.66 8 9.32 8 10 C6.02 10 4.04 10 2 10 C2 9.01 2 8.02 2 7 C1.36485174 4.65789079 0.7013284 2.32315031 0 0 Z " fill="#C11613" transform="translate(164,256)"/>
<path d="M0 0 C0.66 0.33 1.32 0.66 2 1 C2.0270043 2.45823212 2.04639787 3.91660675 2.0625 5.375 C2.07410156 6.18710937 2.08570313 6.99921875 2.09765625 7.8359375 C2 10 2 10 1 12 C0.01 11.67 -0.98 11.34 -2 11 C-2.33 9.02 -2.66 7.04 -3 5 C-2.34 5 -1.68 5 -1 5 C-0.67 3.35 -0.34 1.7 0 0 Z " fill="#7F7A7A" transform="translate(407,260)"/>
<path d="M0 0 C0.66 0 1.32 0 2 0 C2 1.32 2 2.64 2 4 C5.3 4 8.6 4 12 4 C11.67 4.66 11.34 5.32 11 6 C3.73846154 6.49230769 3.73846154 6.49230769 0 4 C-0.66 3.34 -1.32 2.68 -2 2 C-1.34 2 -0.68 2 0 2 C0 1.34 0 0.68 0 0 Z " fill="#777373" transform="translate(223,268)"/>
<path d="M0 0 C0.33 1.32 0.66 2.64 1 4 C0.236875 4.598125 -0.52625 5.19625 -1.3125 5.8125 C-3.3483575 7.46959332 -5.1978279 9.10297674 -7 11 C-7.33 10.34 -7.66 9.68 -8 9 C-7.34 8.01 -6.68 7.02 -6 6 C-5.34 6 -4.68 6 -4 6 C-3.71125 5.38125 -3.4225 4.7625 -3.125 4.125 C-2 2 -2 2 0 0 Z " fill="#9E9B9C" transform="translate(418,205)"/>
<path d="M0 0 C0.66 0.33 1.32 0.66 2 1 C-0.50711863 3.59665858 -2.92975723 6.08109827 -6 8 C-10 8 -10 8 -12 7 C-10.56705502 6.15885829 -9.12845595 5.32734313 -7.6875 4.5 C-6.88699219 4.0359375 -6.08648437 3.571875 -5.26171875 3.09375 C-3 2 -3 2 0 2 C0 1.34 0 0.68 0 0 Z " fill="#B6B1B4" transform="translate(443,189)"/>
<path d="M0 0 C0.66 0 1.32 0 2 0 C0.59257936 3.51855159 -0.66466523 4.38612834 -4 6 C-4.33 6.99 -4.66 7.98 -5 9 C-5.66 8.67 -6.32 8.34 -7 8 C-6.34 6.35 -5.68 4.7 -5 3 C-4.34 3 -3.68 3 -3 3 C-2.505 2.505 -2.01 2.01 -1.5 1.5 C-1.005 1.005 -0.51 0.51 0 0 Z " fill="#A19E9F" transform="translate(352,262)"/>
<path d="M0 0 C0.66 0.33 1.32 0.66 2 1 C2 1.99 2 2.98 2 4 C0.68 3.67 -0.64 3.34 -2 3 C-2.20625 3.639375 -2.4125 4.27875 -2.625 4.9375 C-4 7 -4 7 -7.125 7.75 C-8.548125 7.87375 -8.548125 7.87375 -10 8 C-6.97727468 4.74475735 -3.74281699 2.38179263 0 0 Z " fill="#B0ACAE" transform="translate(429,197)"/>
<path d="M0 0 C5.79355528 1.32768975 10.0999919 3.66544904 15 7 C14.01 7.495 14.01 7.495 13 8 C10.21484375 6.85546875 10.21484375 6.85546875 6.9375 5.1875 C5.85339844 4.64480469 4.76929688 4.10210937 3.65234375 3.54296875 C1 2 1 2 0 0 Z " fill="#6E080B" transform="translate(142,257)"/>
<path d="M0 0 C1.46726798 3.81489674 0.43336419 6.29011622 -1 10 C-3.97 9.505 -3.97 9.505 -7 9 C-6.38125 8.79375 -5.7625 8.5875 -5.125 8.375 C-2.15232982 6.45150753 -1.92018084 4.32680765 -1 1 C-0.67 0.67 -0.34 0.34 0 0 Z " fill="#B1A9AA" transform="translate(222,249)"/>
<path d="M0 0 C0.99 0.33 1.98 0.66 3 1 C0.30722411 4.32637022 -3.03724749 5.58473125 -7 7 C-7.99 6.67 -8.98 6.34 -10 6 C-8.68 5.67 -7.36 5.34 -6 5 C-6.33 4.01 -6.66 3.02 -7 2 C-6.34 1.67 -5.68 1.34 -5 1 C-5 1.66 -5 2.32 -5 3 C-3.02463255 2.65213292 -3.02463255 2.65213292 -1 2 C-0.67 1.34 -0.34 0.68 0 0 Z " fill="#A39C9A" transform="translate(472,195)"/>
<path d="M0 0 C0.33 0 0.66 0 1 0 C1.33 2.64 1.66 5.28 2 8 C1.34 8 0.68 8 0 8 C0 8.66 0 9.32 0 10 C-1.98 10.33 -3.96 10.66 -6 11 C-5.38125 10.484375 -4.7625 9.96875 -4.125 9.4375 C-1.52523258 6.45541385 -0.88050877 3.81553799 0 0 Z " fill="#B6B2B2" transform="translate(343,248)"/>
<path d="M0 0 C-0.33 1.32 -0.66 2.64 -1 4 C-4.3 3.67 -7.6 3.34 -11 3 C-11 2.34 -11 1.68 -11 1 C-9.88625 1.020625 -8.7725 1.04125 -7.625 1.0625 C-4.58237918 1.01004102 -2.83730029 0 0 0 Z " fill="#979494" transform="translate(215,258)"/>
<path d="M0 0 C0.33 0.66 0.66 1.32 1 2 C-2.12621626 5.39417765 -4.56541027 7.6062718 -9 9 C-8.67 8.01 -8.34 7.02 -8 6 C-7.34 6 -6.68 6 -6 6 C-6 5.34 -6 4.68 -6 4 C-4.03852126 2.61061923 -2.03833424 1.2739589 0 0 Z " fill="#9A9697" transform="translate(125,146)"/>
<path d="M0 0 C0.99 0 1.98 0 3 0 C2.67 3.63 2.34 7.26 2 11 C-0.67927341 6.98108988 -0.15601248 4.75838077 0 0 Z " fill="#FAF3F3" transform="translate(404,252)"/>
<path d="M0 0 C3.63 0 7.26 0 11 0 C11 0.66 11 1.32 11 2 C8.02148438 2.34179688 8.02148438 2.34179688 5.04296875 2.68359375 C2.80603607 2.97170735 2.80603607 2.97170735 0 4 C0 2.68 0 1.36 0 0 Z " fill="#9B9798" transform="translate(261,213)"/>
<path d="M0 0 C0.99 0 1.98 0 3 0 C1.55922954 3.36179774 -0.24750021 5.59156268 -3 8 C-3.66 8 -4.32 8 -5 8 C-3.63029745 5.04987143 -2.17390875 2.4347778 0 0 Z " fill="#BEB9B8" transform="translate(114,155)"/>
<path d="M0 0 C0.99 0.33 1.98 0.66 3 1 C3.94921875 3.06640625 3.94921875 3.06640625 4.6875 5.5625 C4.93886719 6.38878906 5.19023437 7.21507812 5.44921875 8.06640625 C5.63097656 8.70449219 5.81273437 9.34257812 6 10 C2.46413986 6.82679218 0.41421969 4.83256305 0 0 Z " fill="#C1171A" transform="translate(132,242)"/>
<path d="M0 0 C0.66 0 1.32 0 2 0 C2 1.32 2 2.64 2 4 C1.01 3.67 0.02 3.34 -1 3 C-0.67 2.01 -0.34 1.02 0 0 Z M-3 3 C-2.34 3.33 -1.68 3.66 -1 4 C-2.32 5.32 -3.64 6.64 -5 8 C-5.33 7.34 -5.66 6.68 -6 6 C-5.01 5.01 -4.02 4.02 -3 3 Z " fill="#E8E5E7" transform="translate(414,212)"/>
<path d="M0 0 C3.96 0.33 7.92 0.66 12 1 C12.33 1.99 12.66 2.98 13 4 C8.71 3.01 4.42 2.02 0 1 C0 0.67 0 0.34 0 0 Z " fill="#B8B1B2" transform="translate(149,165)"/>
<path d="M0 0 C7.50769231 0.61538462 7.50769231 0.61538462 10 2.5625 C10.33 3.036875 10.66 3.51125 11 4 C6.44262737 3.56179109 3.42346555 3.14958831 0 0 Z " fill="#A19E9D" transform="translate(274,213)"/>
<path d="M0 0 C2 2 2 2 2.125 5.125 C2.08375 6.07375 2.0425 7.0225 2 8 C1.01 7.67 0.02 7.34 -1 7 C-1.8125 5.125 -1.8125 5.125 -2 3 C-1.34 2.01 -0.68 1.02 0 0 Z " fill="#847F7F" transform="translate(117,263)"/>
<path d="M0 0 C0.66 0 1.32 0 2 0 C2 3.63 2 7.26 2 11 C1.67 11 1.34 11 1 11 C0.63890458 9.35567294 0.28629924 7.7094792 -0.0625 6.0625 C-0.25972656 5.14597656 -0.45695312 4.22945312 -0.66015625 3.28515625 C-0.77230469 2.53105469 -0.88445312 1.77695313 -1 1 C-0.67 0.67 -0.34 0.34 0 0 Z " fill="#A39999" transform="translate(98,219)"/>
<path d="M0 0 C0.33 0.66 0.66 1.32 1 2 C-1.40983607 6.70491803 -1.40983607 6.70491803 -4 8 C-4 6.02 -4 4.04 -4 2 C-2.68 1.34 -1.36 0.68 0 0 Z " fill="#AEA8A9" transform="translate(492,175)"/>
<path d="M0 0 C0.99 1.32 1.98 2.64 3 4 C2.01 4.33 1.02 4.66 0 5 C-1.66710346 6.49985609 -1.66710346 6.49985609 -3 8 C-2.45276317 4.62537285 -1.9451 2.91765 0 0 Z " fill="#ACA6A7" transform="translate(184,226)"/>
<path d="M0 0 C2.31 0.33 4.62 0.66 7 1 C6.67 2.32 6.34 3.64 6 5 C2.83884224 3.63016497 2.0072908 3.0109362 0 0 Z " fill="#ACA9AA" transform="translate(314,266)"/>
<path d="M0 0 C0.99 0.66 1.98 1.32 3 2 C2.67 3.32 2.34 4.64 2 6 C0.68 4.68 -0.64 3.36 -2 2 C-1.34 1.34 -0.68 0.68 0 0 Z " fill="#CAC6C6" transform="translate(233,228)"/>
</svg>
